# xmcd CD database file
#
# Track frame offsets:
#	150
#	13922
#	28520
#	42883
#	59426
#	73220
#	88488
#	106974
#	128888
#	148048
#	168351
#
# Disc length: 2446 seconds
#
# Revision: 0
# Processed by: cddbd v1.5.2PL0 Copyright (c) Steve Scherf et al.
# Submitted via: CDex 1.51
#
DISCID=a0098c0b
DTITLE=Cynthia Queenton - Ton rêve
DYEAR=2008
DGENRE=Jazz
TTITLE0=J'aurais tant voulu de toi
TTITLE1=Mensonge
TTITLE2=Fragile
TTITLE3=Ton rêve
TTITLE4=Vivre mieux
TTITLE5=Ne me regarde pas
TTITLE6=Lann-Bihoué
TTITLE7=Voyage au Paradis
TTITLE8=C'est pas difficile
TTITLE9=Tout va recommencer
TTITLE10=Bonus track
EXTD=YEAR: 2008
EXTT0=
EXTT1=
EXTT2=
EXTT3=
EXTT4=
EXTT5=
EXTT6=
EXTT7=
EXTT8=
EXTT9=
EXTT10=
PLAYORDER=
